# xmcd
#
# Track frame offsets: 
#        150
#        16550
#        36832
#        55397
#        88832
#        111520
#        130515
#        146917
#        163345
#        181210
#        199117
#        221932
#        236877
#
# Disc length: 3444 seconds
#
# Revision: 4
# Processed by: cddbd v1.5.2PL0 Copyright (c) Steve Scherf et al.
# Submitted via: ExactAudioCopy v1.1
#
DISCID=c30d720d
DTITLE=SUNNYLAND BLUESBAND - Mean Dog
DYEAR=1997
DGENRE=Blues
TTITLE0=Run For Cover
TTITLE1=Big Easy Woman
TTITLE2=Fall To Pieces
TTITLE3=A Time To Think Again
TTITLE4=Carry Me
TTITLE5=Helpless
TTITLE6=Can't Fight What You Can't See
TTITLE7=Move Along
TTITLE8=Pull Me Under
TTITLE9=Dust My Broom
TTITLE10=Little By Little
TTITLE11=Bang For The Buck
TTITLE12=Little Eden
EXTD=
EXTT0=
EXTT1=
EXTT2=
EXTT3=
EXTT4=
EXTT5=
EXTT6=
EXTT7=
EXTT8=
EXTT9=
EXTT10=
EXTT11=
EXTT12=
PLAYORDER=
